<svg width="121" height="21" viewBox="0 0 121 21" fill="none" xmlns="http://www.w3.org/2000/svg">
<path d="M4.9027 20H0.618608L7.14631 1.09091H12.2983L18.8168 20H14.5327L13.1293 15.6882H6.30611L4.9027 20ZM7.32173 12.5675H12.1229L9.79617 5.41193H9.64844L7.32173 12.5675ZM21.4177 20V1.09091H28.8779C31.0261 1.09091 32.6911 1.65104 33.8729 2.77131C35.0609 3.89157 35.6549 5.39039 35.6549 7.26776C35.6549 8.56037 35.3656 9.66525 34.787 10.5824C34.2146 11.4995 33.3898 12.1889 32.3126 12.6506L36.3289 20H31.9156L28.3332 13.2969H25.4156V20H21.4177ZM25.4156 10.0838H28.13C30.4014 10.0838 31.537 9.14512 31.537 7.26776C31.537 5.32884 30.3952 4.35938 28.1116 4.35938H25.4156V10.0838ZM49.063 6.52912C48.9891 5.78433 48.6691 5.20573 48.1028 4.79332C47.5426 4.38092 46.7855 4.17471 45.8315 4.17471C44.8528 4.17471 44.1018 4.37476 43.5786 4.77486C43.0554 5.17495 42.7938 5.67969 42.7938 6.28906C42.7815 6.96615 43.0708 7.48011 43.6617 7.83097C44.2588 8.17566 44.9666 8.44342 45.7853 8.63423L47.4842 9.04048C48.5798 9.28669 49.5523 9.6437 50.4018 10.1115C51.2574 10.5793 51.9283 11.1825 52.4146 11.9212C52.907 12.6536 53.1532 13.5462 53.1532 14.5987C53.147 16.3284 52.4977 17.7071 51.205 18.7351C49.9186 19.7569 48.1212 20.2678 45.813 20.2678C43.5171 20.2678 41.6859 19.7446 40.3194 18.6982C38.9529 17.6518 38.2451 16.1068 38.1958 14.0632H42.0644C42.1321 15.0111 42.5045 15.7251 43.1816 16.2053C43.8648 16.6792 44.7266 16.9162 45.7668 16.9162C46.7825 16.9162 47.5919 16.7008 48.1951 16.2699C48.8045 15.839 49.1122 15.2789 49.1184 14.5895C49.1122 13.9493 48.8322 13.4569 48.2782 13.1122C47.7242 12.7675 46.9333 12.4721 45.9053 12.2259L43.8464 11.7088C42.2522 11.3272 40.9934 10.7209 40.0701 9.88991C39.1468 9.05895 38.6882 7.94792 38.6944 6.55682C38.6882 5.41193 38.9929 4.41169 39.6085 3.55611C40.2301 2.69437 41.0826 2.02651 42.166 1.55256C43.2493 1.07244 44.4804 0.832386 45.8592 0.832386C47.2626 0.832386 48.4875 1.07244 49.5339 1.55256C50.5864 2.03267 51.4051 2.70052 51.9898 3.55611C52.5746 4.41169 52.8762 5.4027 52.8947 6.52912H49.063ZM60.0267 11.8011V20H56.0934V1.09091H59.9159V8.32031H60.0821C60.4083 7.48319 60.9253 6.82765 61.6332 6.35369C62.3472 5.87358 63.2428 5.63352 64.32 5.63352C65.7973 5.63352 66.9852 6.10748 67.8839 7.0554C68.7826 8.00331 69.2288 9.30824 69.2227 10.9702V20H65.2895V11.6719C65.2956 10.7978 65.074 10.1177 64.6247 9.63139C64.1815 9.14512 63.5598 8.90199 62.7596 8.90199C61.9594 8.90199 61.3039 9.15743 60.793 9.66832C60.2883 10.1731 60.0328 10.884 60.0267 11.8011ZM76.6871 20.2678C75.3329 20.2678 74.2096 19.9138 73.317 19.206C72.4245 18.4981 71.9783 17.4425 71.9783 16.0391C71.9783 14.9804 72.2276 14.1494 72.7261 13.5462C73.2247 12.9429 73.8772 12.5028 74.6835 12.2259C75.496 11.9427 76.3701 11.758 77.3057 11.6719C78.5367 11.5488 79.417 11.4195 79.9463 11.2841C80.4757 11.1487 80.7403 10.8532 80.7403 10.3977V10.3423C80.7403 9.75758 80.5557 9.30516 80.1864 8.98508C79.8232 8.66501 79.3062 8.50497 78.6352 8.50497C77.9274 8.50497 77.3642 8.65885 76.9456 8.96662C76.527 9.27438 76.2501 9.66525 76.1146 10.1392L72.4768 9.84375C72.7477 8.55114 73.4186 7.52628 74.4896 6.76918C75.5668 6.01207 76.9548 5.63352 78.6537 5.63352C79.7063 5.63352 80.6911 5.79972 81.6082 6.1321C82.5254 6.46449 83.264 6.98461 83.8242 7.69247C84.3904 8.39418 84.6736 9.30824 84.6736 10.4347V20H80.9435V18.0334H80.8327C80.488 18.692 79.9709 19.2306 79.2815 19.6491C78.5983 20.0616 77.7335 20.2678 76.6871 20.2678ZM77.8135 17.5533C78.6752 17.5533 79.3831 17.304 79.9371 16.8054C80.4911 16.3007 80.768 15.6759 80.768 14.9311V13.4261C80.6142 13.5308 80.3741 13.6231 80.0479 13.7031C79.7278 13.7831 79.3831 13.8539 79.0138 13.9155C78.6506 13.9709 78.3244 14.0201 78.0351 14.0632C77.3457 14.1617 76.7886 14.3556 76.3639 14.6449C75.9454 14.9342 75.7361 15.3558 75.7361 15.9098C75.7361 16.4515 75.93 16.8608 76.3178 17.1378C76.7117 17.4148 77.2103 17.5533 77.8135 17.5533ZM88.0501 20V1.09091H91.9833V11.201H92.1957L96.7383 5.81818H101.253L95.9904 11.9581L101.521 20H96.9137L93.0451 14.2848L91.9833 15.4943V20H88.0501ZM103.508 20V5.81818H107.441V20H103.508ZM105.484 3.99006C104.905 3.99006 104.407 3.79616 103.988 3.40838C103.569 3.01444 103.36 2.54356 103.36 1.99574C103.36 1.44792 103.569 0.980113 103.988 0.592329C104.407 0.204545 104.905 0.0106524 105.484 0.0106524C106.068 0.0106524 106.57 0.204545 106.989 0.592329C107.407 0.980113 107.617 1.44792 107.617 1.99574C107.617 2.54356 107.407 3.01444 106.989 3.40838C106.57 3.79616 106.068 3.99006 105.484 3.99006ZM110.917 20V5.81818H114.73V8.29261H114.878C115.136 7.4124 115.567 6.74763 116.17 6.2983C116.78 5.8428 117.485 5.61506 118.285 5.61506C118.666 5.61506 119.02 5.66122 119.347 5.75355C119.673 5.84588 119.965 5.97206 120.224 6.1321L119.042 9.3821C118.857 9.28977 118.654 9.21283 118.432 9.15128C118.217 9.08357 117.974 9.04972 117.703 9.04972C116.909 9.04972 116.235 9.32055 115.681 9.86222C115.133 10.4039 114.856 11.1087 114.85 11.9766V20H110.917Z" fill="#F2994A"/>
</svg>
